#tb 0: 1/25
0,          0,          0,        1,   152064, 0x3064732b
0,          1,          1,        1,   152064, 0xc6cde2ab
0,          2,          2,        1,   152064, 0x3c039f65
0,          3,          3,        1,   152064, 0xbd3b53e0
0,          4,          4,        1,   152064, 0x3ab585b6
